HIERARCHY
ROOT Hips
{
	OFFSET 0.000000 0.000000 0.000000
	CHANNELS 6 Xposition Yposition Zposition Xrotation Yrotation Zrotation
	JOINT LeftUpLeg_virtual
	{
		OFFSET 0.000000 0.000000 0.000000
		CHANNELS 3 Xrotation Yrotation Zrotation
		JOINT LeftUpLeg
		{
			OFFSET 10.205400 -3.823500 0.155100
			CHANNELS 3 Xrotation Yrotation Zrotation
			JOINT LeftLeg
			{
				OFFSET 0.708757 -12.982077 0.567790
				CHANNELS 3 Xrotation Yrotation Zrotation
				JOINT LeftFoot
				{
					OFFSET -0.708756 -10.717838 -2.184338
					CHANNELS 3 Xrotation Yrotation Zrotation
					JOINT LeftToeBase
					{
						OFFSET 0.108149 -7.191104 7.560241
						CHANNELS 3 Xrotation Yrotation Zrotation
						JOINT LeftToe_End
						{
							OFFSET 0.070230 0.081724 4.490308
							CHANNELS 3 Xrotation Yrotation Zrotation
							End Site
							{
								OFFSET 0 0 0
							}
						}
					}
				}
			}
		}
	}
	JOINT RightUpLeg_virtual
	{
		OFFSET 0.000000 0.000000 0.000000
		CHANNELS 3 Xrotation Yrotation Zrotation
		JOINT RightUpLeg
		{
			OFFSET -10.205400 -3.823500 0.005500
			CHANNELS 3 Xrotation Yrotation Zrotation
			JOINT RightLeg
			{
				OFFSET -0.708756 -12.982134 0.610632
				CHANNELS 3 Xrotation Yrotation Zrotation
				JOINT RightFoot
				{
					OFFSET 0.708754 -10.717769 -1.945823
					CHANNELS 3 Xrotation Yrotation Zrotation
					JOINT RightToeBase
					{
						OFFSET -0.108140 -7.191069 7.372968
						CHANNELS 3 Xrotation Yrotation Zrotation
						JOINT RightToe_End
						{
							OFFSET -0.070227 0.081735 4.479403
							CHANNELS 3 Xrotation Yrotation Zrotation
							End Site
							{
								OFFSET 0 0 0
							}
						}
					}
				}
			}
		}
	}
	JOINT Spine_virtual
	{
		OFFSET 0.000000 0.000000 0.000000
		CHANNELS 3 Xrotation Yrotation Zrotation
		JOINT Spine
		{
			OFFSET 0.000000 6.876099 0.125700
			CHANNELS 3 Xrotation Yrotation Zrotation
			JOINT Spine1
			{
				OFFSET 0.000000 5.730043 0.104720
				CHANNELS 3 Xrotation Yrotation Zrotation
				JOINT Spine1_split
				{
					OFFSET 0.000000 5.730043 0.104720
					CHANNELS 3 Xrotation Yrotation Zrotation
					JOINT Spine2
					{
						OFFSET 0.000000 5.730043 0.104720
						CHANNELS 3 Xrotation Yrotation Zrotation
						JOINT Neck_virtual
						{
							OFFSET 0.000000 0.000000 0.000000
							CHANNELS 3 Xrotation Yrotation Zrotation
							JOINT Neck
							{
								OFFSET 0.000000 10.314075 0.188496
								CHANNELS 3 Xrotation Yrotation Zrotation
								JOINT Head
								{
									OFFSET 0.000000 7.643700 -2.377400
									CHANNELS 3 Xrotation Yrotation Zrotation
									JOINT HeadTop_End
									{
										OFFSET 0.000000 43.788605 -13.619600
										CHANNELS 3 Xrotation Yrotation Zrotation
										End Site
										{
											OFFSET 0 0 0
										}
									}
								}
							}
						}
						JOINT LeftShoulder_virtual
						{
							OFFSET 0.000000 0.000000 0.000000
							CHANNELS 3 Xrotation Yrotation Zrotation
							JOINT LeftShoulder
							{
								OFFSET 2.196100 4.412489 0.087492
								CHANNELS 3 Xrotation Yrotation Zrotation
								JOINT LeftShoulder_split
								{
									OFFSET 2.196100 4.412489 0.087492
									CHANNELS 3 Xrotation Yrotation Zrotation
									JOINT LeftArm
									{
										OFFSET 8.771219 -2.981674 -0.026999
										CHANNELS 3 Xrotation Yrotation Zrotation
										JOINT LeftForeArm
										{
											OFFSET 8.512804 0.000000 -0.000000
											CHANNELS 3 Xrotation Yrotation Zrotation
											JOINT LeftHand
											{
												OFFSET 18.484802 0.000000 -0.000000
												CHANNELS 3 Xrotation Yrotation Zrotation
												End Site
												{
													OFFSET 0 0 0
												}
											}
										}
									}
								}
							}
						}
						JOINT RightShoulder_virtual
						{
							OFFSET 0.000000 0.000000 0.000000
							CHANNELS 3 Xrotation Yrotation Zrotation
							JOINT RightShoulder
							{
								OFFSET -2.196100 4.412496 0.070690
								CHANNELS 3 Xrotation Yrotation Zrotation
								JOINT RightShoulder_split
								{
									OFFSET -2.196100 4.412496 0.070690
									CHANNELS 3 Xrotation Yrotation Zrotation
									JOINT RightArm
									{
										OFFSET -8.771282 -2.981682 -0.094208
										CHANNELS 3 Xrotation Yrotation Zrotation
										JOINT RightForeArm
										{
											OFFSET -8.494598 0.000000 0.000000
											CHANNELS 3 Xrotation Yrotation Zrotation
											JOINT RightHand
											{
												OFFSET -18.483803 0.000000 0.000001
												CHANNELS 3 Xrotation Yrotation Zrotation
												End Site
												{
													OFFSET 0 0 0
												}
											}
										}
									}
								}
							}
						}
					}
				}
			}
		}
	}
}
MOTION
Frames: 7
Frame Time: 0.03333333
-0.163104 35.355854 -5.556664 0.000000 0.000000 0.000000 -5.557638 -3.168950 4.271955 -3.662805 16.215199 -6.690703 17.292427 0.301654 5.972818 -9.615916 1.972697 -2.758813 0.408268 -2.062080 0.282605 0.000000 0.000000 0.000000 -5.521059 -3.709314 4.129337 -1.111348 -10.515969 -5.908618 20.814119 5.646882 -3.593455 -18.129918 -17.607108 12.345584 -0.195322 3.867962 -13.737601 0.000000 0.000000 0.000000 -6.900961 3.130331 4.678094 7.617143 -5.590979 -1.857432 9.665943 2.792344 -3.185505 0.067725 -0.879165 -0.046030 0.000000 0.000000 0.000000 10.917055 4.657158 -1.793076 3.576411 2.188188 6.773574 13.370446 -44.921440 2.308098 0.000000 0.000000 0.000000 9.967980 4.285590 -2.776104 1.074441 -9.869974 -23.529481 4.674682 -9.789256 -5.168876 -4.686973 -54.571057 -38.871313 13.906795 -15.610483 13.428388 0.000000 0.000000 0.000000 9.150425 2.696922 -3.566306 -1.370364 19.935785 23.684535 -6.836608 -2.583676 4.532204 0.474784 39.854226 46.069489 14.618997 29.275588 1.713755 0.000000 0.000000 0.000000 
0.062216 35.608608 -5.575072 0.000000 0.000000 0.000000 -6.546081 -4.220550 5.184508 -0.220865 17.295198 -8.321974 13.966209 0.129737 5.564432 -9.450469 1.981516 -2.573318 1.936373 -1.981761 0.428339 0.000000 0.000000 0.000000 -6.517618 -4.040243 5.000320 1.015453 -11.513063 -6.946551 18.657895 5.995823 -3.134290 -18.680532 -16.680094 10.664726 0.378957 3.615028 -13.461931 0.000000 0.000000 0.000000 -8.231879 2.624345 5.149601 7.297265 -5.281647 -2.286634 8.486180 2.217001 -3.389071 0.139923 -0.885810 0.065737 0.000000 0.000000 0.000000 9.903502 4.118321 -1.776132 3.451276 2.665660 6.027861 11.888687 -41.596340 3.721885 0.000000 0.000000 0.000000 8.682374 3.817292 -2.739941 1.752144 -7.261151 -20.534984 3.954269 -9.097818 -3.997550 -5.908832 -51.993364 -44.301474 14.926955 -13.259070 14.902359 0.000000 0.000000 0.000000 7.768257 2.065325 -3.525256 -0.040392 18.217586 21.537422 -7.551932 -3.148164 3.322820 4.408761 42.699501 46.646295 16.477439 31.290101 0.486245 0.000000 0.000000 0.000000 
0.223484 35.748085 -5.543427 0.000000 0.000000 0.000000 -7.185315 -5.174069 5.918456 2.394111 17.803976 -9.508276 11.694447 0.036055 5.127281 -9.364649 1.997485 -2.147739 3.024465 -1.861359 0.331473 0.000000 0.000000 0.000000 -7.246336 -4.250174 5.788276 2.174919 -12.496077 -8.108914 17.466459 6.521673 -2.711939 -18.668633 -16.083810 10.679777 -0.052078 3.536156 -13.717194 0.000000 0.000000 0.000000 -8.980556 2.167163 5.346801 6.824088 -4.925013 -2.629503 7.463558 1.770321 -3.550822 0.145215 -0.821590 0.159485 0.000000 0.000000 0.000000 9.086274 3.705783 -1.780990 3.715949 2.852183 5.278741 8.902097 -39.202530 4.176338 0.000000 0.000000 0.000000 7.500921 3.458468 -2.736547 2.239127 -5.522277 -16.767121 3.664418 -8.452941 -2.859095 -5.622322 -48.018299 -48.256762 17.175489 -13.040896 16.432943 0.000000 0.000000 0.000000 6.388242 1.596546 -3.385159 1.299017 15.813317 18.629640 -7.912470 -3.957816 2.343176 7.211887 43.880441 47.486310 17.498909 34.732468 0.084912 0.000000 0.000000 0.000000 
0.329464 35.794518 -5.499722 0.000000 0.000000 0.000000 -7.606259 -5.874586 6.380067 3.828200 17.871231 -10.055007 10.766353 -0.071696 4.727167 -9.029387 1.887724 -1.786692 3.364185 -1.712425 -0.046227 0.000000 0.000000 0.000000 -7.735613 -4.395615 6.346312 2.527012 -13.220000 -9.265310 17.103885 7.319010 -2.376063 -18.183989 -15.697042 12.311896 -1.152062 3.594869 -14.299549 0.000000 0.000000 0.000000 -9.225535 1.667653 5.325210 6.186293 -4.442605 -2.692409 6.653417 1.505190 -3.675885 0.158264 -0.792283 0.202086 0.000000 0.000000 0.000000 8.474761 3.457776 -1.822322 4.039677 2.759752 4.609897 4.548221 -37.570692 3.445638 0.000000 0.000000 0.000000 6.526607 3.208761 -2.857955 2.557607 -4.946317 -12.858607 3.463465 -7.806997 -2.344103 -4.653769 -42.520069 -50.981837 20.529436 -14.003060 17.884297 0.000000 0.000000 0.000000 5.152826 1.372144 -3.198057 2.424366 13.102234 15.368604 -8.480730 -4.720694 1.975630 8.606008 43.365575 48.479569 17.428618 37.685596 0.818342 0.000000 0.000000 0.000000 
0.451802 35.777885 -5.432649 0.000000 0.000000 0.000000 -7.884084 -6.222492 6.540858 4.206326 17.662323 -10.101951 11.001142 -0.122274 4.432617 -8.571974 1.681090 -1.356460 3.175315 -1.567435 -0.507994 0.000000 0.000000 0.000000 -8.031056 -4.593581 6.598384 2.501235 -13.647018 -10.203613 17.386991 8.047241 -2.154195 -17.824550 -15.577867 14.255096 -1.399914 3.603820 -14.925259 0.000000 0.000000 0.000000 -9.099773 1.092387 5.206095 5.461974 -3.837104 -2.407361 6.052023 1.400668 -3.767658 0.128464 -0.800904 0.207203 0.000000 0.000000 0.000000 8.043394 3.339141 -1.905704 4.149692 2.438727 4.056807 -0.666212 -36.415037 1.609917 0.000000 0.000000 0.000000 5.736497 3.050199 -3.125102 2.743914 -5.454654 -9.612885 2.986837 -7.017391 -2.099098 -4.135065 -35.747482 -53.051377 24.540398 -14.466645 18.930580 0.000000 0.000000 0.000000 4.213155 1.373083 -2.996042 3.147278 10.468575 12.202664 -9.212315 -5.056712 2.248408 8.768758 41.456229 49.255011 16.218428 38.695610 2.729221 0.000000 0.000000 0.000000 
0.559208 35.719837 -5.339993 0.000000 0.000000 0.000000 -8.066494 -6.221729 6.438616 3.778009 17.386407 -9.774469 11.869726 -0.142648 4.202962 -8.050452 1.396062 -1.026205 3.098443 -1.427317 -0.978180 0.000000 0.000000 0.000000 -8.154018 -4.800819 6.570048 2.373202 -13.737889 -10.729935 18.013678 8.460305 -2.007886 -18.226836 -15.831306 15.469475 0.000024 3.434008 -15.404235 0.000000 0.000000 0.000000 -8.824257 0.505724 5.075070 4.642744 -3.162925 -1.845069 5.642771 1.393419 -3.812243 0.133449 -0.799682 0.185882 0.000000 0.000000 0.000000 7.664598 3.279144 -2.003438 3.976450 1.929992 3.620956 -5.849349 -35.290208 -0.871160 0.000000 0.000000 0.000000 5.119577 2.916400 -3.487548 2.861301 -6.853424 -7.326466 2.388270 -6.148770 -1.850785 -4.818747 -27.900131 -55.010788 28.287058 -13.433514 19.113262 0.000000 0.000000 0.000000 3.673639 1.508693 -2.800317 3.511280 8.253504 9.647827 -9.934424 -5.056101 2.937875 7.777390 38.616455 49.762573 14.440244 37.900136 5.287379 0.000000 0.000000 0.000000 
0.640849 35.639435 -5.240003 0.000000 0.000000 0.000000 -8.163019 -6.080423 6.212329 3.060369 17.153057 -9.266398 12.658242 -0.159921 4.024414 -7.614716 1.022024 -0.895347 2.959037 -1.305692 -1.197873 0.000000 0.000000 0.000000 -8.149934 -4.872169 6.347232 2.311801 -13.526992 -10.922943 18.707260 8.532662 -1.859541 -19.096876 -16.398284 16.012868 1.995321 3.189522 -15.668724 0.000000 0.000000 0.000000 -8.594377 0.046826 4.986010 3.801107 -2.476783 -1.202548 5.378911 1.395424 -3.788187 0.178712 -0.785776 0.134066 0.000000 0.000000 0.000000 7.274076 3.201162 -2.066303 3.593855 1.272406 3.298940 -10.386135 -33.960104 -3.464166 0.000000 0.000000 0.000000 4.583782 2.746100 -3.808680 2.860774 -8.562457 -6.030255 1.411220 -5.417734 -1.224597 -6.463014 -19.300228 -56.894281 31.340569 -11.219948 18.307586 0.000000 0.000000 0.000000 3.508764 1.635447 -2.614565 3.650211 6.525964 8.127310 -10.655831 -4.689180 3.591974 6.070079 35.192939 50.168388 12.882172 36.093260 7.824185 0.000000 0.000000 0.000000 
